# xmcd
#
# Track frame offsets: 
#        150
#        16986
#        32568
#        55448
#        73501
#        100877
#        120548
#        147578
#        164670
#        178916
#        198738
#        217230
#
# Disc length: 3126 seconds
#
# Revision: 1
# Processed by: cddbd v1.5.2PL0 Copyright (c) Steve Scherf et al.
# Submitted via: ExactAudioCopyFreeDBPlugin 1.0
#
DISCID=be0c340c
DTITLE=Trampled Under Foot - Wrong Side Of The Blues
DYEAR=2011
DGENRE=Blues
TTITLE0=Get It Straight
TTITLE1=Bad Woman
TTITLE2=Wrong Side Of The Blues
TTITLE3=She's Long, She's Tall, She's Gone
TTITLE4=Goodbye
TTITLE5=Heart On The Line
TTITLE6=The Fool
TTITLE7=Have A Real Good Time
TTITLE8=Just Tell Yourself
TTITLE9=Evil Train
TTITLE10=It Would Be Nice
TTITLE11=The Better Life
EXTD=
EXTT0=
EXTT1=
EXTT2=
EXTT3=
EXTT4=
EXTT5=
EXTT6=
EXTT7=
EXTT8=
EXTT9=
EXTT10=
EXTT11=
PLAYORDER=
